<?xml version="1.0" encoding="UTF-8" standalone="no"?>
<svg viewBox="0 0 369.44 153" version="1.1" id="svg98" sodipodi:docname="index-logo.svg" inkscape:version="1.2.1 (9c6d41e410, 2022-07-14)" xmlns:inkscape="http://www.inkscape.org/namespaces/inkscape" xmlns:sodipodi="http://sodipodi.sourceforge.net/DTD/sodipodi-0.dtd" xmlns="http://www.w3.org/2000/svg" xmlns:svg="http://www.w3.org/2000/svg">
  <defs id="defs102"></defs>
  <sodipodi:namedview id="namedview100" pagecolor="#000000" bordercolor="#000000" borderopacity="0.25" inkscape:showpageshadow="2" inkscape:pageopacity="0" inkscape:pagecheckerboard="0" inkscape:deskcolor="#d1d1d1" showgrid="false" inkscape:zoom="3.0796508" inkscape:cx="75.333216" inkscape:cy="53.090435" inkscape:window-width="2560" inkscape:window-height="1011" inkscape:window-x="0" inkscape:window-y="0" inkscape:window-maximized="1" inkscape:current-layer="svg98"></sodipodi:namedview>
  <path d="M119.86 11.43C127 9 127.59 0 120.51 0c-1.95 0-4.28 1.37-5.88 4.17L105 20.73a13.83 13.83 0 0 1-1.37 2c-2.46-3.39-1.74-8.45 1.71-10.67L104 10.27c-7.46 4.75-5.27 18.48 7.18 18.48 10.6-.01 15.52-12.75 8.68-17.32zM111.07 26a10.23 10.23 0 0 1-5.13-1.23 18.43 18.43 0 0 0 1.78-2.53l6-10.37 1 .1C123 13.72 119.69 26 111.07 26zm3.83-16.21l2.87-4.93c2.6-4.48 5.92-1.85 4.14 1.5-1.37 2.57-3.39 3.36-7.01 3.43z" fill="#fff" id="path76"></path>
  <path d="M259.21 19l-.24.27a16.74 16.74 0 0 1-6.5 5c.58-.92 1-1.92 1.47-2.67l3.93-6.74c3.32-5.64-2.05-7.53-5.68-4.28l.72-1.23h-3.56L243.79 19l-.24.27a7.66 7.66 0 0 1-5.37 2.63l3.35-5.78c2.16-3.73.17-7.25-3.18-7.25-2.74 0-4.86 1.09-6.91 4.65l-1.75 3-1.46 2.48-.19.22c-2.57 3-5.06 5.34-6.64 5.34-.79 0-1.23-.55-.41-2l5.13-9c1.54-2.7.07-4.65-1.92-4.65-1.54 0-3.18.85-5 2.7l5.68-9.89h-3.56L211.45 19l-.2.23A22.14 22.14 0 0 1 207 23.1c1.13-3.39.89-8.59 3.08-13.14l-2.67-1.44c-1.47 2-4.69 6.67-7.9 10.43l-.24.27c-2.57 3-5.06 5.34-6.64 5.34-.79 0-1.23-.55-.41-2l3.56-6.23c1.23-2.16.65-3.42-.51-4.82l-2-2.39a1.39 1.39 0 0 1 .09-2l.11-.09-1.85-2c-2 1.81-2.19 3.83-.92 5.47l.3.41c-1.57 2.22-3.69 5.23-6 8l-.24.27c-2.57 3-5.85 5.34-8.35 5.34-2.19 0-3.49-1.37-1.85-4.24l.34-.62c2.29 1 6.6.51 9.27-4.1l.51-.89c1.92-3.28.07-5.75-2.84-5.75a7.53 7.53 0 0 0-6.67 4.11L171.7 19l-.21.24a7.59 7.59 0 0 1-5.37 2.63l3.35-5.78a8.66 8.66 0 0 0 1.34-4.09A3 3 0 0 0 168 8.82h-.41a4.14 4.14 0 0 0-2.33.79l4.52-7.83h-3.63L156.18 19l-.19.21c-2.57 3-5.06 5.34-6.64 5.34-.79 0-1.23-.55-.41-2l3.56-6.23c1.23-2.16.65-3.42-.51-4.82l-2-2.39a1.39 1.39 0 0 1 .1-2l.11-.09-1.85-2c-2 1.81-2.19 3.83-.92 5.47l.31.41c-1.57 2.22-3.7 5.23-6 8l-.24.27c-2.57 3-5.06 5.34-6.64 5.34-.79 0-1.23-.55-.41-2l5.75-10.06h-2A3.7 3.7 0 0 0 134.44 9c-1.92 0-4.58 1.51-6.09 4.11l-5 8.62c-1.51 2.64-.44 5.06 2.43 5.06 1.44 0 3.22-.92 4.93-2.33.17 1.37 1.27 2.33 3.08 2.33 2.94 0 6.33-3.15 9.27-6.57 1.71-2 3-3.76 5.88-7.63l.48.58a1.75 1.75 0 0 1 .21 2l-3.76 6.53c-1.5 2.64-.44 5.06 2.43 5.06 2.06 0 4.34-1.55 6.54-3.65 0 2.43 1.81 3.8 4.11 3.8a7.87 7.87 0 0 0 6-3.3 6 6 0 0 0 .79 0 10.44 10.44 0 0 0 4.72-1.4c-.19 2.57 1.68 4.52 4.82 4.52 4 0 8-3.15 11-6.57 1.71-2 3-3.76 5.88-7.63l.48.58a1.75 1.75 0 0 1 .21 2l-3.76 6.53c-1.51 2.64-.44 5.06 2.43 5.06s6.33-3.15 9.27-6.57c2-2.33 3.8-4.82 5.06-6.5-1.4 3.7-.65 10.33-4 10.33a2 2 0 0 1-1.68-1.3L198 23.82a3.88 3.88 0 0 0 3.9 2.87 9.63 9.63 0 0 0 1-.07h.1a12.54 12.54 0 0 0 5.47-2.36l-1.22 2.12h3.59l5.4-9.41c5.48-6.88 7.9-6 6.36-3.35l-4.62 8c-1.51 2.63-.44 5.06 2.43 5.06 2.07 0 4.35-1.56 6.55-3.67 0 4.54 6.29 5.42 10.15.55h.79a9.8 9.8 0 0 0 3.81-.94l-6.48 11.24h3.59l10.64-18.51c4-5.41 6.47-3.42 5.54-1.81l-5.37 9.31a1.37 1.37 0 0 1-2.57 0l-2 1a3.88 3.88 0 0 0 3.9 2.87h.21c5.17-.1 8.55-3.18 11.46-6.57a2.25 2.25 0 0 0-1.42-1.15zm-81-5c2.05-3.52 5.68-2.94 3.56.75l-.51.89c-1.71 2.91-4 2.84-5.34 2.36zm-45.61 5.61c-2.16 3.39-4.28 5-5.75 5-.79 0-1.23-.55-.41-2l5-8.66c1.92-3.32 5.71-2.46 4 .75zm26.79 4.86a1.33 1.33 0 0 1-1.44-1.37 4 4 0 0 1 .62-1.85l1.25-2.25a5.23 5.23 0 0 0 2.26 3.69 3.34 3.34 0 0 1-2.7 1.74zM163.1 21a3.84 3.84 0 0 1-1.51-3.22c0-2.53 2.46-6.67 4.48-6.67a1.36 1.36 0 0 1 1.34 1.54 4.33 4.33 0 0 1-.68 2.12zm73.08-1.78H236a2.1 2.1 0 0 0-2.09 2.11 2.34 2.34 0 0 0 .34 1.2v.07c-1.68 2.87-5.75 2.33-3.63-1.37l2.7-4.69 1.68-2.92c2.5-4.24 5.92-2.57 3.76 1.13zM-.004 73.257l5.714-5.713 5.712 5.715-5.714 5.712zm352.023.026l5.714-5.713 5.713 5.715-5.715 5.712z" fill="#fff" id="path78"></path>
  <path fill="#636466" d="m 79.81,91.34 h 2.08 V 65.16 h 3.27 v -2.09 h -5.35 z" id="path82" sodipodi:nodetypes="ccccccc"></path>
  <path d="M92.14 58.25a4.46 4.46 0 0 1 .48 2v34a4.63 4.63 0 0 1-4.56 4.56H77a4.5 4.5 0 0 1-2-.48 4.56 4.56 0 0 0 4.07 2.56h11.08a4.63 4.63 0 0 0 4.56-4.56v-34a4.57 4.57 0 0 0-2.57-4.08zm20.68 15.23h2.08v-8.32h3.28v-2.09h-5.36v10.41zm12.25 9.04a4.47 4.47 0 0 0 2.59-4.06V62.32a4.56 4.56 0 0 0-2.57-4.1 4.55 4.55 0 0 1 .48 2v16.15a4.46 4.46 0 0 1-2.57 4.07l3.08 18.35h-5.68l.35 2.08h7.39zm-9.42-1.65h-2.83v17.92h-5.31v2.09h7.39V82.95h1.1l-.35-2.08zm29.19 10.47h2.09V65.16h3.27v-2.09h-5.36v28.27z" fill="#636466" id="path84"></path>
  <path d="m 157.18,58.25 c 0.31399,0.620036 0.47838,1.304997 0.48,2 v 34 c -0.0376,2.502695 -2.0573,4.52244 -4.56,4.56 H 142 c -0.69483,-0.0031 -1.37945,-0.167404 -2,-0.48 0.76002,1.557366 2.33711,2.54934 4.07,2.56 h 11.09 c 2.5027,-0.0376 4.52244,-2.057305 4.56,-4.56 v -34 c -0.005,-1.731342 -0.98883,-3.31094 -2.54,-4.08 z" fill="#636466" id="path86" sodipodi:nodetypes="ccccccccccc"></path>
  <path d="m 263.58,83 h 6.11 v -2.13 h -8.19 c -0.69474,-0.0038 -1.3792,-0.168089 -2,-0.48 0.7417,1.585044 2.33003,2.601109 4.08,2.61 z m 2.83,2.73 -2.09,0.48 v 5.13 h 2.09 z m 10.25,-27.48 c 0.31364,0.620165 0.47801,1.305041 0.48,2 V 69 l -5.37,1.24 v 2.56 l 7.45,-1.73 v -8.75 c -0.0107,-1.73289 -1.00263,-3.309979 -2.56,-4.07 z" fill="#636466" id="path88" style="display: inline" sodipodi:nodetypes="ccccccccccccccccccc"></path>
  <path d="M276.66 76.05a4.46 4.46 0 0 1 .48 2v16.2a4.63 4.63 0 0 1-4.56 4.56h-11.09a4.5 4.5 0 0 1-2-.48 4.56 4.56 0 0 0 4.07 2.56h11.08a4.63 4.63 0 0 0 4.56-4.56V80.12a4.56 4.56 0 0 0-2.54-4.07zm-12.34-12.98v10.41h2.09v-8.32h3.27v-2.09h-5.36zm33.69 17.8h-.68v17.92h-5.3v2.09h7.39V85.35l-1.41-4.48zm15.14-23.1h-2.75l-6.23 19.41 6.9 21.61h-6.01l.58 1.84.06.25h7.45l-6.9-21.62 6.9-21.49zm17.38 0v41.02h-5.3v2.09h7.38V57.77h-2.08z" fill="#636466" id="path90"></path>
  <path d="M167.9 123.85h1.41c5.43.28 9.69 1.73 12.39 4.72 2.74-3 7-4.46 12.46-4.72h1.35c12.11.82 17.63 9.5 27.3 13.19a11.12 11.12 0 0 0 4.79 1c2.48-.27 4.06-2.78 3.74-5.58-.34-3-3.28-5.61-6.56-4.17a4.32 4.32 0 0 0-1.17.8c-.25.23-.53.83-1.17.61-.6-.5 0-1.23.31-1.65a6 6 0 0 1 6.07-3c5.63.4 10.67 5.34 9.81 12.82C236.71 149 226.53 152 214.46 153h-3.93a48.28 48.28 0 0 1-28.77-11 49.07 49.07 0 0 1-28.9 11H149c-12.16-1.07-22.44-4-24.23-15.46-.68-8.16 4.18-12.17 9.82-12.58a6.11 6.11 0 0 1 6.14 3c.28.46.8 1.17.31 1.72-.61.11-.91-.37-1.17-.61a4 4 0 0 0-2.82-1.23c-3.86-.14-6.08 4.15-4.54 7.61a4.33 4.33 0 0 0 3.37 2.52 11.69 11.69 0 0 0 4.79-1 23.84 23.84 0 0 0 3.87-1.9c7.35-4.26 13.1-10.31 23.36-11.22z" fill="#fff" id="path92"></path>
  <path fill="#636466" d="M361.634 82.906l5.713-5.714 2.086 2.085-5.713 5.715zM9.667 82.95l5.713-5.714 2.086 2.086-5.713 5.713z" id="path94"></path>
  <path fill="#636466" d="m 177.61601,73.177253 h 2.08 v -8.32 h 3.27 v -2.09 h -5.35 z m 14.89,1.52 v -12.68 a 4.56,4.56 0 0 0 -2.56,-4.07 4.46,4.46 0 0 1 0.48,2 v 12.68 a 4.47,4.47 0 0 1 -1.66,3.51 5.2,5.2 0 0 1 1.66,3.69 v 14.1 a 4.63,4.63 0 0 1 -4.61,4.559997 h -13.51 v 2.08 h 15.64 a 4.63,4.63 0 0 0 4.56,-4.56 V 81.907253 a 5.19,5.19 0 0 0 -1.69,-3.69 4.47,4.47 0 0 0 1.69,-3.52 z" id="path80-6"></path>
  <path d="m 59.966112,58.140688 c 0.313636,0.62016 0.478006,1.30504 0.48,2 v 34 c -0.03756,2.5027 -2.057305,4.52244 -4.56,4.56 h -13.56 v 2.080002 h 15.64 c 2.502695,-0.0376 4.52244,-2.057302 4.56,-4.560002 v -34 c -0.0092,-1.73582 -1.001056,-3.31656 -2.56,-4.08 z" fill="#636466" id="path88-2" style="display: inline" sodipodi:nodetypes="cccccccccc"></path>
  <path d="m 48.677883,91.266124 h 2.09 v -26.18 h 3.27 v -2.09 h -5.36 z" fill="#636466" id="path86-2" sodipodi:nodetypes="ccccccc"></path>
  <path fill="#636466" d="m 175.08207,91.716284 h 2.08 v -8.39 h 3.27 v -2.08 h -5.35 z" id="path82-0" sodipodi:nodetypes="ccccccc"></path>
  <path d="M 210.51092,57.297019 V 98.31702 h -5.31 v 2.09 h 7.39 V 57.297019 Z m 32.88,0 V 98.31702 h -5.9 l 0.59,2.09 h 7.4 V 57.297019 Z m -12.81,22.179996 V 98.31702 h -5.3 v 2.09 h 7.39 V 86.717015 Z" fill="#636466" id="path88-9" style="display: inline" sodipodi:nodetypes="ccccccccccccccccccccc"></path>
  <path d="m 84.364918,52.383434 c 2.51161,0.01636 4.54364,2.04839 4.56,4.56 v 33.999998 c -0.0376,2.502695 -2.0573,4.52244 -4.56,4.56 h -11.1 c -2.51161,-0.01636 -4.54364,-2.04839 -4.56,-4.56 V 56.943434 c -0.006,-2.520712 2.03929,-4.565546 4.56,-4.56 z m -2.9,7.39 h -5.35 v 28.269998 h 5.36 z m 33.510012,35.719998 -3,-17.92 h -2.83 v 17.92 h -7.39 V 52.383434 h 15.64 c 2.50187,0.01651 4.51662,2.058128 4.5,4.56 v 16.139998 c -0.005,1.751761 -1.03352,3.338922 -2.63,4.06 l 3.08,18.35 z m -0.49,-35.719998 h -5.36 v 10.409998 h 5.36 z m 34.92,-7.39 c 2.51161,0.01636 4.54364,2.04839 4.56,4.56 v 33.999998 c -0.0376,2.502695 -2.0573,4.52244 -4.56,4.56 h -11.08 c -2.51161,-0.01636 -4.54364,-2.04839 -4.56,-4.56 V 56.943434 c -0.006,-2.497394 2.00275,-4.532562 4.5,-4.56 h 11.1 z m -2.9,7.39 h -5.36 v 28.269998 h 5.36 z m 53.65,-7.39 h 7.39 v 43.109998 h -7.39 z m 40.28,0 v 43.109998 h -7.39 l -5.42,-18.83 v 18.83 h -7.36 V 52.383434 h 7.33 l 5.42,17.669998 V 52.383434 Z m 28.45,17.799998 c 2.51161,0.01636 4.54364,2.04839 4.56,4.56 v 16.2 c -0.0376,2.502695 -2.0573,4.52244 -4.56,4.56 h -11.08 c -2.5038,-0.02722 -4.52378,-2.056109 -4.54,-4.56 v -8.87 l 7.39,-1.72 v 7.7 h 5.36 v -10.48 h -8.19 c -2.5129,0.0055 -4.55448,-2.027102 -4.56,-4.54 V 56.943434 c -0.006,-2.512898 2.0271,-4.554483 4.54,-4.56 h 11.1 c 2.51161,0.01636 4.54364,2.04839 4.56,4.56 v 8.72 l -7.45,1.73 v -7.62 h -5.36 v 10.409998 z m 31.6,3.7 6.9,21.62 h -7.45 l -0.06,-0.25 -5.54,-17.67 h -0.68 v 17.91 h -7.39 V 52.383434 h 7.39 v 17.799998 h 0.61 l 5.67,-17.799998 h 7.51 z m 18.97,-21.499998 h 7.39 v 43.109998 h -7.39 z" fill="#ffffff" id="path96-6" sodipodi:nodetypes="ccccccccccccccccccccccccccccccccccccccccccccccccccccccccccccccccccccccccccccccccccccccccccccccccccccccccc"></path>
  <path d="m 53.009373,52.114205 c 2.51161,0.0164 4.543637,2.04839 4.56,4.56 v 34 c -0.03756,2.5027 -2.057305,4.52244 -4.56,4.56 H 37.369371 v -43.12 z m -2.890002,7.39 h -5.36 v 28.27 h 5.36 z" fill="#ffffff" id="path96-3" sodipodi:nodetypes="cccccccccccc"></path>
  <path d="m 186.99849,69.752736 c 0.004,1.349608 -0.60285,2.628571 -1.65,3.48 1.0288,0.955453 1.62752,2.286334 1.66,3.69 v 14.1 c -0.0376,2.502695 -2.05731,4.52244 -4.56,4.56 h -15.65 v -43.11 h 15.64 c 2.51161,0.01636 4.54363,2.04839 4.56,4.56 z m -7.45,-9.89 h -5.36 v 10.41 h 5.36 z m 0,17.8 h -5.36 v 10.47 h 5.36 z" fill="#ffffff" id="path96" sodipodi:nodetypes="cccccccccccccccccccc"></path>
</svg>
